<svg width="42" height="42" viewBox="0 0 42 42" fill="none" xmlns="http://www.w3.org/2000/svg">
<path d="M21.0001 0.166626C9.52091 0.166626 0.166748 9.52079 0.166748 21C0.166748 32.4791 9.52091 41.8333 21.0001 41.8333C32.4792 41.8333 41.8334 32.4791 41.8334 21C41.8334 9.52079 32.4792 0.166626 21.0001 0.166626ZM24.7292 27.25C25.3334 27.8541 25.3334 28.8541 24.7292 29.4583C24.4167 29.7708 24.0209 29.9166 23.6251 29.9166C23.2292 29.9166 22.8334 29.7708 22.5209 29.4583L15.1667 22.1041C14.5626 21.5 14.5626 20.5 15.1667 19.8958L22.5209 12.5416C23.1251 11.9375 24.1251 11.9375 24.7292 12.5416C25.3334 13.1458 25.3334 14.1458 24.7292 14.75L18.4792 21L24.7292 27.25Z" fill="black"/>
</svg>
