<svg width="50" height="50" viewBox="0 0 50 50" fill="none" xmlns="http://www.w3.org/2000/svg">
<path d="M25 4.16663C13.5208 4.16663 4.16663 13.5208 4.16663 25C4.16663 36.4791 13.5208 45.8333 25 45.8333C36.4791 45.8333 45.8333 36.4791 45.8333 25C45.8333 13.5208 36.4791 4.16663 25 4.16663ZM30.8125 26.1041L23.4583 33.4583C23.1458 33.7708 22.75 33.9166 22.3541 33.9166C21.9583 33.9166 21.5625 33.7708 21.25 33.4583C20.6458 32.8541 20.6458 31.8541 21.25 31.25L27.5 25L21.25 18.75C20.6458 18.1458 20.6458 17.1458 21.25 16.5416C21.8541 15.9375 22.8541 15.9375 23.4583 16.5416L30.8125 23.8958C31.4375 24.5 31.4375 25.5 30.8125 26.1041Z" fill="black"/>
</svg>
