<svg xmlns="http://www.w3.org/2000/svg" viewBox="0 0 200 199.81"><defs><style>.cls-1{fill:#292d32;}</style></defs><g id="Layer_2" data-name="Layer 2"><g id="Layer_1-2" data-name="Layer 1"><path class="cls-1" d="M192.59,174.28a7.4,7.4,0,0,1-5.24-2.17l-48.92-48.93a7.41,7.41,0,0,1,10.48-10.48l48.92,48.93a7.41,7.41,0,0,1-5.24,12.65Z"/><path class="cls-1" d="M94.7,166.12a27,27,0,0,1-19.22-8l-41.91-41.9a27.22,27.22,0,0,1,0-38.45L103.44,7.94a27.25,27.25,0,0,1,38.46,0l41.9,41.91a27.22,27.22,0,0,1,0,38.45l-34.89,34.88h0l-35,35A27,27,0,0,1,94.7,166.12Zm28-151.31a12.36,12.36,0,0,0-8.75,3.62L44.05,88.3a12.38,12.38,0,0,0,0,17.49L86,147.69a12.71,12.71,0,0,0,17.48,0l69.87-69.87a12.4,12.4,0,0,0,0-17.49l-41.89-41.9A12.36,12.36,0,0,0,122.67,14.81Zm21,103.13h0Z"/><path class="cls-1" d="M69.2,199.81H7.69a7.69,7.69,0,0,1,0-15.38H69.2a7.69,7.69,0,0,1,0,15.38Z"/><path class="cls-1" d="M129.53,139.49a7.37,7.37,0,0,1-5.24-2.17L54.42,67.45A7.41,7.41,0,1,1,64.9,57l69.88,69.88a7.41,7.41,0,0,1-5.25,12.65Z"/></g></g></svg>