<svg width="106" height="107" viewBox="0 0 106 107" fill="none" xmlns="http://www.w3.org/2000/svg">
<rect y="0.464844" width="106" height="106" rx="30" fill="#F1F2F2"/>
<g clip-path="url(#clip0_651_12075)">
<path d="M40.5 46.7506H48.8333C48.8333 45.6456 48.3943 44.5858 47.6129 43.8044C46.8315 43.023 45.7717 42.584 44.6667 42.584C43.5616 42.584 42.5018 43.023 41.7204 43.8044C40.939 44.5858 40.5 45.6456 40.5 46.7506Z" fill="black"/>
<path d="M44.6667 38.4167C45.6192 38.4263 46.5629 38.6004 47.4562 38.9312L51.5271 34.8604C51.7193 34.6614 51.9491 34.5027 52.2033 34.3935C52.4575 34.2844 52.7309 34.2269 53.0075 34.2245C53.2841 34.2221 53.5585 34.2748 53.8145 34.3795C54.0705 34.4843 54.3031 34.639 54.4987 34.8346C54.6943 35.0302 54.849 35.2628 54.9538 35.5188C55.0585 35.7749 55.1113 36.0492 55.1089 36.3258C55.1065 36.6025 55.049 36.8758 54.9398 37.13C54.8306 37.3842 54.6719 37.6141 54.4729 37.8062L50.9458 41.3333C52.2623 42.8315 52.992 44.7556 53 46.75H61.3333V38.4167C61.33 35.655 60.2315 33.0074 58.2787 31.0546C56.3259 29.1018 53.6783 28.0033 50.9167 28H38.4167C35.655 28.0033 33.0074 29.1018 31.0546 31.0546C29.1018 33.0074 28.0033 35.655 28 38.4167L28 46.75H36.3333C36.3333 44.5399 37.2113 42.4202 38.7741 40.8574C40.3369 39.2946 42.4565 38.4167 44.6667 38.4167Z" fill="black"/>
<path d="M77.3354 34.8056C76.9447 34.4151 76.4149 34.1957 75.8625 34.1957C75.3101 34.1957 74.7803 34.4151 74.3896 34.8056L68.1937 40.9994C67.803 41.39 67.5835 41.9198 67.5833 42.4723V65.4994C67.5833 66.0519 67.3638 66.5818 66.9731 66.9725C66.5824 67.3632 66.0525 67.5827 65.5 67.5827H61.3333V50.916H28V67.5827C28.0033 70.3443 29.1018 72.9919 31.0546 74.9447C33.0074 76.8975 35.655 77.996 38.4167 77.9993H50.9167C52.9412 77.9967 54.921 77.4041 56.6141 76.2941C58.3072 75.1842 59.6402 73.6049 60.45 71.7494H65.5C67.1576 71.7494 68.7473 71.0909 69.9194 69.9188C71.0915 68.7467 71.75 67.157 71.75 65.4994V43.3348L77.3354 37.7515C77.726 37.3608 77.9454 36.831 77.9454 36.2786C77.9454 35.7261 77.726 35.1963 77.3354 34.8056Z" fill="black"/>
</g>
<defs>
<clipPath id="clip0_651_12075">
<rect width="50" height="50" fill="white" transform="translate(28 28)"/>
</clipPath>
</defs>
</svg>
