<svg width="106" height="106" viewBox="0 0 106 106" fill="none" xmlns="http://www.w3.org/2000/svg">
<rect width="106" height="106" rx="30" fill="#F1F2F2"/>
<path d="M57.8959 32.1667H48.1042C45.9376 32.1667 44.1667 33.9167 44.1667 36.0834V38.0417C44.1667 40.2084 45.9167 41.9584 48.0834 41.9584H57.8959C60.0626 41.9584 61.8126 40.2084 61.8126 38.0417V36.0834C61.8334 33.9167 60.0626 32.1667 57.8959 32.1667Z" fill="black"/>
<path d="M63.9167 38.0417C63.9167 41.3542 61.2084 44.0625 57.8959 44.0625H48.1042C44.7917 44.0625 42.0834 41.3542 42.0834 38.0417C42.0834 36.875 40.8334 36.1459 39.7917 36.6875C36.8542 38.25 34.8542 41.3542 34.8542 44.9167V64.5209C34.8542 69.6459 39.0417 73.8334 44.1667 73.8334H61.8334C66.9584 73.8334 71.1459 69.6459 71.1459 64.5209V44.9167C71.1459 41.3542 69.1459 38.25 66.2084 36.6875C65.1667 36.1459 63.9167 36.875 63.9167 38.0417ZM53.7917 63.3125H44.6667C43.8126 63.3125 43.1042 62.6042 43.1042 61.75C43.1042 60.8959 43.8126 60.1875 44.6667 60.1875H53.7917C54.6459 60.1875 55.3542 60.8959 55.3542 61.75C55.3542 62.6042 54.6459 63.3125 53.7917 63.3125ZM59.2501 54.9792H44.6667C43.8126 54.9792 43.1042 54.2709 43.1042 53.4167C43.1042 52.5625 43.8126 51.8542 44.6667 51.8542H59.2501C60.1042 51.8542 60.8126 52.5625 60.8126 53.4167C60.8126 54.2709 60.1042 54.9792 59.2501 54.9792Z" fill="black"/>
</svg>
