<svg width="106" height="106" viewBox="0 0 106 106" fill="none" xmlns="http://www.w3.org/2000/svg">
<rect width="106" height="106" rx="30" fill="#F1F2F2"/>
<path d="M52.8749 32.6041L47.8541 44.2916H42.8333C41.9999 44.2916 41.1874 44.3541 40.3958 44.5208L42.4791 39.5208L42.5624 39.3333L42.6874 39C42.7499 38.8541 42.7916 38.7291 42.8541 38.625C45.2708 33.0208 47.9791 31.2708 52.8749 32.6041Z" fill="black"/>
<path d="M67.0208 44.8542L66.9792 44.8333C65.7292 44.4792 64.4583 44.2917 63.1667 44.2917H50.125L54.8125 33.3958L54.875 33.25C55.1667 33.3542 55.4792 33.5 55.7917 33.6042L60.3958 35.5417C62.9583 36.6042 64.75 37.7083 65.8542 39.0417C66.0417 39.2917 66.2083 39.5208 66.375 39.7917C66.5625 40.0833 66.7083 40.375 66.7917 40.6875C66.875 40.875 66.9375 41.0417 66.9792 41.2292C67.2917 42.2917 67.3125 43.5 67.0208 44.8542Z" fill="black"/>
<path d="M54.0833 64.7917H54.6041C55.2291 64.7917 55.7499 64.2292 55.7499 63.5417C55.7499 62.6667 55.4999 62.5417 54.9583 62.3334L54.0833 62.0209V64.7917Z" fill="black"/>
<path d="M66.1042 47.8333C65.1667 47.5625 64.1876 47.4166 63.1667 47.4166H42.8334C41.4167 47.4166 40.0834 47.6875 38.8334 48.2291C35.2084 49.7916 32.6667 53.3958 32.6667 57.5833V61.6458C32.6667 62.1458 32.7084 62.625 32.7709 63.125C33.2292 69.75 36.7709 73.2916 43.3959 73.7291C43.8751 73.7916 44.3542 73.8333 44.8751 73.8333H61.1251C68.8334 73.8333 72.8959 70.1666 73.2917 62.875C73.3126 62.4791 73.3334 62.0625 73.3334 61.6458V57.5833C73.3334 52.9791 70.2709 49.1041 66.1042 47.8333ZM55.6667 60.2916C56.6251 60.625 57.9167 61.3333 57.9167 63.5416C57.9167 65.4375 56.4376 66.9583 54.6042 66.9583H54.0834V67.4166C54.0834 68.0208 53.6042 68.5 53.0001 68.5C52.3959 68.5 51.9167 68.0208 51.9167 67.4166V66.9583H51.7292C49.7292 66.9583 48.0834 65.2708 48.0834 63.1875C48.0834 62.5833 48.5626 62.1041 49.1667 62.1041C49.7709 62.1041 50.2501 62.5833 50.2501 63.1875C50.2501 64.0625 50.9167 64.7916 51.7292 64.7916H51.9167V61.2708L50.3334 60.7083C49.3751 60.375 48.0834 59.6666 48.0834 57.4583C48.0834 55.5625 49.5626 54.0416 51.3959 54.0416H51.9167V53.5833C51.9167 52.9791 52.3959 52.5 53.0001 52.5C53.6042 52.5 54.0834 52.9791 54.0834 53.5833V54.0416H54.2709C56.2709 54.0416 57.9167 55.7291 57.9167 57.8125C57.9167 58.4166 57.4376 58.8958 56.8334 58.8958C56.2292 58.8958 55.7501 58.4166 55.7501 57.8125C55.7501 56.9375 55.0834 56.2083 54.2709 56.2083H54.0834V59.7291L55.6667 60.2916Z" fill="black"/>
<path d="M50.25 57.4584C50.25 58.3334 50.5 58.4584 51.0417 58.6667L51.9167 58.9792V56.2084H51.3958C50.75 56.2084 50.25 56.7709 50.25 57.4584Z" fill="black"/>
</svg>
