<svg width="106" height="106" viewBox="0 0 106 106" fill="none" xmlns="http://www.w3.org/2000/svg">
<rect width="106" height="106" rx="30" fill="#F1F2F2"/>
<path d="M73.8333 45.75V36.2917C73.8333 33.3542 72.5 32.1667 69.1875 32.1667H60.7708C57.4583 32.1667 56.125 33.3542 56.125 36.2917V45.7292C56.125 48.6875 57.4583 49.8542 60.7708 49.8542H69.1875C72.5 49.875 73.8333 48.6875 73.8333 45.75Z" fill="black"/>
<path d="M73.8333 69.1875V60.7708C73.8333 57.4583 72.5 56.125 69.1875 56.125H60.7708C57.4583 56.125 56.125 57.4583 56.125 60.7708V69.1875C56.125 72.5 57.4583 73.8333 60.7708 73.8333H69.1875C72.5 73.8333 73.8333 72.5 73.8333 69.1875Z" fill="black"/>
<path d="M49.875 45.75V36.2917C49.875 33.3542 48.5416 32.1667 45.2291 32.1667H36.8125C33.5 32.1667 32.1666 33.3542 32.1666 36.2917V45.7292C32.1666 48.6875 33.5 49.8542 36.8125 49.8542H45.2291C48.5416 49.875 49.875 48.6875 49.875 45.75Z" fill="black"/>
<path d="M49.875 69.1875V60.7708C49.875 57.4583 48.5416 56.125 45.2291 56.125H36.8125C33.5 56.125 32.1666 57.4583 32.1666 60.7708V69.1875C32.1666 72.5 33.5 73.8333 36.8125 73.8333H45.2291C48.5416 73.8333 49.875 72.5 49.875 69.1875Z" fill="black"/>
</svg>
