<svg width="106" height="106" viewBox="0 0 106 106" fill="none" xmlns="http://www.w3.org/2000/svg">
<rect width="106" height="106" rx="30" fill="#F1F2F2"/>
<path d="M53.0001 31.7018C41.5209 31.7018 32.1667 41.056 32.1667 52.5352C32.1667 64.0143 41.5209 73.3685 53.0001 73.3685C64.4793 73.3685 73.8334 64.0143 73.8334 52.5352C73.8334 41.056 64.4793 31.7018 53.0001 31.7018ZM62.0626 59.9727C61.7709 60.4727 61.2501 60.7435 60.7084 60.7435C60.4376 60.7435 60.1667 60.681 59.9167 60.5143L53.4584 56.6602C51.8542 55.7018 50.6667 53.5977 50.6667 51.7435V43.2018C50.6667 42.3477 51.3751 41.6393 52.2292 41.6393C53.0834 41.6393 53.7917 42.3477 53.7917 43.2018V51.7435C53.7917 52.4935 54.4167 53.5977 55.0626 53.9727L61.5209 57.8268C62.2709 58.2643 62.5209 59.2227 62.0626 59.9727Z" fill="black"/>
</svg>
