<svg width="106" height="106" viewBox="0 0 106 106" fill="none" xmlns="http://www.w3.org/2000/svg">
<rect width="106" height="106" rx="30" fill="#F1F2F2"/>
<g clip-path="url(#clip0_651_12083)">
<path d="M42.5833 77.7787C42.2126 77.7158 41.846 77.6309 41.4854 77.5246L35.5083 75.6496C33.3469 75.0146 31.4487 73.6977 30.097 71.8955C28.7454 70.0933 28.0127 67.9023 28.0083 65.6496V40.4996C28.0105 38.7872 28.4348 37.1017 29.2436 35.5924C30.0525 34.083 31.221 32.7964 32.6457 31.8463C34.0704 30.8963 35.7073 30.3121 37.4116 30.1455C39.1159 29.9789 40.8349 30.235 42.4166 30.8912L42.5833 30.9683V77.7787ZM71.0833 30.4308L71.0396 30.4162L65.3833 28.5412C64.7434 28.3337 64.0847 28.1893 63.4166 28.11V74.4892L67.6958 75.7225C68.9219 76.0209 70.1998 76.037 71.4331 75.7695C72.6663 75.502 73.8227 74.9579 74.815 74.1783C75.8073 73.3987 76.6096 72.4039 77.1613 71.2689C77.713 70.134 77.9998 68.8886 78 67.6267V40.2412C77.9968 38.093 77.3309 35.998 76.093 34.2423C74.8551 32.4865 73.1056 31.1555 71.0833 30.4308ZM59.25 28.3954C59.25 28.3954 47.0771 31.8808 46.75 31.9162V77.7496C46.9583 77.7058 59.25 74.3412 59.25 74.3412V28.3954Z" fill="black"/>
</g>
<defs>
<clipPath id="clip0_651_12083">
<rect width="50" height="50" fill="white" transform="translate(28 28)"/>
</clipPath>
</defs>
</svg>
