<svg width="20" height="20" viewBox="0 0 20 20" fill="none" xmlns="http://www.w3.org/2000/svg">
<g clip-path="url(#clip0_653_13078)">
<path d="M10 20C15.5228 20 20 15.5228 20 10C20 4.47715 15.5228 0 10 0C4.47715 0 0 4.47715 0 10C0 15.5228 4.47715 20 10 20Z" fill="#F0F0F0"/>
<path d="M2.28577 3.63652H17.7142C17.1444 2.94648 16.4834 2.33457 15.7503 1.81836H4.24971C3.51655 2.33449 2.85565 2.94645 2.28577 3.63652Z" fill="#F0F0F0"/>
<path d="M0 9.99988C0 10.3064 0.0145703 10.6095 0.0415625 10.909H19.9584C19.9854 10.6095 20 10.3064 20 9.99988C20 9.69336 19.9854 9.39031 19.9584 9.09082H0.0415625C0.0145703 9.39031 0 9.69336 0 9.99988H0Z" fill="#F0F0F0"/>
<path d="M1.09049 14.5454H18.9096C19.204 13.9694 19.4442 13.3612 19.6235 12.7273H0.376587C0.555845 13.3612 0.796079 13.9694 1.09049 14.5454Z" fill="#F0F0F0"/>
<path d="M4.24971 18.1819H15.7502C16.4834 17.6657 17.1443 17.0538 17.7142 16.3638H2.28577C2.85565 17.0537 3.51655 17.6657 4.24971 18.1819Z" fill="#F0F0F0"/>
<path d="M0.376465 7.27275H19.6234C19.4441 6.63885 19.2039 6.03057 18.9095 5.45459H1.09041C0.795996 6.03057 0.555762 6.63885 0.376465 7.27275Z" fill="#F0F0F0"/>
<path d="M4.78259 1.81816H15.7502C14.1237 0.67293 12.1405 0 9.99998 0C8.69564 0 6.40916 0.67293 4.78259 1.81816Z" fill="#D80027"/>
<path d="M9.56519 5.45464H18.9095C18.5769 4.80413 18.1753 4.19479 17.7142 3.63647H9.56519V5.45464Z" fill="#D80027"/>
<path d="M9.56519 9.09087H19.9584C19.9021 8.46657 19.7891 7.8586 19.6234 7.27271H9.56519V9.09087Z" fill="#D80027"/>
<path d="M0.376504 12.7273H19.6234C19.7891 12.1415 19.9021 11.5335 19.9584 10.9092H0.0415039C0.0977539 11.5335 0.210801 12.1414 0.376504 12.7273Z" fill="#D80027"/>
<path d="M2.28577 16.3636H17.7142C18.1753 15.8052 18.577 15.1959 18.9095 14.5454H1.09045C1.42299 15.1959 1.82463 15.8053 2.28577 16.3636Z" fill="#D80027"/>
<path d="M9.99991 20C12.1404 20 14.1236 19.3271 15.7502 18.1819H4.24963C5.8762 19.3271 7.8594 20 9.99991 20Z" fill="#D80027"/>
<path d="M0.376465 7.27273C0.210762 7.85867 0.0977539 8.4666 0.0415039 9.0909H9.99994V0C5.4226 0 1.56365 3.07547 0.376465 7.27273Z" fill="#0052B4"/>
<path d="M5.95265 2.60864L6.60011 4.60142H8.69565L7.00042 5.83313L7.64784 7.82603L5.95265 6.59438L4.25737 7.82603L4.90495 5.83313L3.20972 4.60142H5.30515L5.95265 2.60864Z" fill="#F0F0F0"/>
</g>
<defs>
<clipPath id="clip0_653_13078">
<rect width="20" height="20" fill="white"/>
</clipPath>
</defs>
</svg>
